<svg xmlns="http://www.w3.org/2000/svg" viewBox="0 0 1001.773 1169.173"><path d="M692.456.033c-.056 15.63 1.977 32.418 4.533 47.744H548.936v737.14c0 33.98-3.487 64.241-10.457 90.786-60.291 132.891-230.997 115.525-278.167 24.335 70.23 43.97 185.705 32.296 233.094-72.08 6.913-26.486 10.397-56.806 10.397-90.785V.033zm100.718 222.924c38.161 30.494 90.784 52.98 163.33 57.277v42.35c-80.271-14.827-131.153-54.722-163.33-99.627zm-677.417 809.627C-125.809 822.963 30.42 356.257 401.81 414.977V458.2C88.161 443.612-49.902 817.735 115.757 1032.584" fill="#69cdcd" fill-rule="evenodd"/><path d="M737.59 47.777v.943c.056 17.071 5.053 263.864 264.044 279.258 0 229.594.117 0 .117 190.686-19.458 1.153-170.473-9.758-264.453-93.58l-.29 371.218c2.324 168.093-91.248 332.932-266.428 366.155-49.081 9.294-93.273 10.341-167.46-5.866-427.368-127.838-285.356-761.703 143.762-693.868 0 204.636.117-.058.117 204.636-177.271-26.08-236.574 121.392-189.468 226.986 42.872 96.131 219.38 116.98 280.948-18.642 6.97-26.545 10.457-56.807 10.457-90.786V47.777H737.59" fill="#fbf9f9" fill-rule="evenodd"/><path d="M737.59 47.777v.943c0 10.035 1.8 99.148 55.584 174.237-64.822-51.863-87.938-126.79-96.185-175.18zm218.914 274.806c14.113 2.6 29.158 4.458 45.13 5.395 0 229.594.117 0 .117 190.686-19.458 1.153-170.473-9.758-264.453-93.58l-.29 371.218c2.324 168.093-91.248 332.932-266.428 366.155-49.081 9.294-93.273 10.341-167.46-5.866-83.517-24.976-145.195-69.35-187.363-124.007 37.573 32.642 84.735 59.07 142.298 76.322 74.105 16.147 118.314 15.1 167.393 5.806 175.181-33.224 268.752-198.06 266.487-366.095l.234-371.276c93.977 83.82 244.993 94.792 264.51 93.57 0-177.085-.175 8.257-.175-148.328zM401.81 458.2a399.37 399.37 0 0145.072 4.523c0 204.636.117-.058.117 204.636-177.271-26.08-236.574 121.392-189.468 226.986a103.008 103.008 0 002.781 5.693c-21.083-13.185-38.038-31.307-47.903-53.437-47.05-105.596 12.19-253.066 189.458-226.988 0-187.55-.057-31.483-.057-161.413" fill="#ed1959" fill-rule="evenodd"/></svg>