<svg xmlns="http://www.w3.org/2000/svg" viewBox="0 0 234.667 165.333"><path d="M229.757 25.82c-2.699-10.162-10.65-18.164-20.746-20.88C190.71.004 117.33.004 117.33.004S43.95.004 25.65 4.94C15.554 7.656 7.602 15.658 4.903 25.82 0 44.24 0 82.668 0 82.668s0 38.43 4.903 56.85c2.699 10.16 10.65 18.163 20.747 20.88 18.3 4.935 91.68 4.935 91.68 4.935s73.381 0 91.68-4.935c10.098-2.717 18.048-10.72 20.747-20.88 4.904-18.42 4.904-56.85 4.904-56.85s0-38.429-4.904-56.848" fill="#ed1d24"/><path d="M93.331 117.56l61.332-34.89L93.33 47.778z" fill="#fff"/></svg>